<?xml version="1.0" standalone="no"?><!DOCTYPE svg PUBLIC "-//W3C//DTD SVG 1.1//EN" "http://www.w3.org/Graphics/SVG/1.1/DTD/svg11.dtd"><svg t="1586093992165" class="icon" viewBox="0 0 1024 1024" version="1.1" xmlns="http://www.w3.org/2000/svg" p-id="2111" xmlns:xlink="http://www.w3.org/1999/xlink" width="200" height="200"><defs><style type="text/css"></style></defs><path d="M424 881.189c0 9.941-8.059 18-18 18s-18-8.059-18-18V708.06c0-67.305 54.561-121.867 121.866-121.867s121.867 54.562 121.867 121.867v173.128c0 9.941-8.059 18-18 18s-18-8.059-18-18V708.06c0-47.423-38.444-85.867-85.867-85.867-47.422 0-85.866 38.444-85.866 85.867v173.128z" fill="#007BFF" p-id="2112"></path><path d="M500.86 129.27a18 18 0 0 1 23.28 0l333.5 282.719a18 18 0 0 1 6.36 13.73V882c0 9.941-8.059 18-18 18H179c-9.941 0-18-8.059-18-18V425.72a18 18 0 0 1 6.36-13.731l333.5-282.72z m11.64 37.328L197 434.058V864h631V434.057l-315.5-267.46z" fill="#333333" p-id="2113"></path></svg>